<?xml version="1.0" encoding="utf-8"?>
<!-- Generator: Adobe Illustrator 19.2.0, SVG Export Plug-In . SVG Version: 6.00 Build 0)  -->
<svg version="1.1" id="Layer_1" xmlns="http://www.w3.org/2000/svg" xmlns:xlink="http://www.w3.org/1999/xlink" x="0px" y="0px"
	 viewBox="0 0 91.3 91.3" style="enable-background:new 0 0 91.3 91.3;" xml:space="preserve">
<style type="text/css">
	.st0{fill:#D00F0F;}
</style>
<g>
	<path class="st0" d="M45.4,57c4.4,0,8.4,1.8,11.3,4.7l4.7-4.7c-3.4-3.4-7.8-5.7-12.7-6.4l-6.8,6.8C43,57.2,44.2,57,45.4,57z"/>
	<path class="st0" d="M38.9,66.5l6.6,6.6l6.6-6.6c-1.7-1.7-4-2.7-6.6-2.7C42.9,63.7,40.5,64.8,38.9,66.5z"/>
	<path class="st0" d="M45.4,37.2c-9.9,0-18.8,4-25.3,10.5l4.7,4.7c3.8-3.8,8.5-6.5,13.9-7.8l7.4-7.4C45.9,37.2,45.6,37.2,45.4,37.2z
		"/>
	<path class="st0" d="M66.1,52.4l4.7-4.7c-3.3-3.3-7.1-5.9-11.4-7.7l-5.2,5.2C58.7,46.6,62.8,49.1,66.1,52.4z"/>
	<path class="st0" d="M45.4,24c-13.5,0-25.8,5.5-34.7,14.4l4.7,4.7c7.7-7.7,18.3-12.4,30-12.4c2.3,0,4.5,0.2,6.7,0.5l5.6-5.6
		C53.8,24.5,49.7,24,45.4,24z"/>
	<path class="st0" d="M64.3,35c4.1,2.1,7.9,4.8,11.1,8l4.7-4.7c-3.2-3.2-6.9-6-10.9-8.2L64.3,35z"/>
</g>
<path class="st0" d="M45.7,0C20.5,0,0,20.5,0,45.7c0,25.2,20.5,45.7,45.7,45.7c25.2,0,45.7-20.5,45.7-45.7C91.3,20.5,70.8,0,45.7,0z
	 M45.7,6.6c9.4,0,18.1,3.4,24.8,8.9l-55,55c-5.6-6.8-8.9-15.4-8.9-24.8C6.6,24.1,24.1,6.6,45.7,6.6z M45.7,84.7
	c-9.4,0-18.1-3.3-24.8-8.9l55-55c5.6,6.8,8.9,15.4,8.9,24.8C84.7,67.2,67.2,84.7,45.7,84.7z"/>
</svg>
